<?xml version="1.0" encoding="UTF-8" standalone="no"?>
<svg
   xmlns:dc="http://purl.org/dc/elements/1.1/"
   xmlns:cc="http://creativecommons.org/ns#"
   xmlns:rdf="http://www.w3.org/1999/02/22-rdf-syntax-ns#"
   xmlns:svg="http://www.w3.org/2000/svg"
   xmlns="http://www.w3.org/2000/svg"
   viewBox="0 0 615.90184 615.9032"
   height="615.9032"
   width="615.90186"
   xml:space="preserve"
   id="svg2"
   version="1.1"><metadata
     id="metadata8"><rdf:RDF><cc:Work
         rdf:about=""><dc:format>image/svg+xml</dc:format><dc:type
           rdf:resource="http://purl.org/dc/dcmitype/StillImage" /><dc:title></dc:title></cc:Work></rdf:RDF></metadata><defs
     id="defs6"><clipPath
       id="clipPath18"
       clipPathUnits="userSpaceOnUse"><path
         id="path16"
         d="m 230.556,297.64 c 0,-105.149 85.24,-190.39 190.389,-190.39 v 0 c 105.15,0 190.39,85.241 190.39,190.39 v 0 c 0,105.15 -85.24,190.39 -190.39,190.39 v 0 c -105.149,0 -190.389,-85.24 -190.389,-190.39" /></clipPath><clipPath
       id="clipPath42"
       clipPathUnits="userSpaceOnUse"><path
         id="path40"
         d="M 0,595.28 H 841.89 V 0 H 0 Z" /></clipPath></defs><g
     transform="matrix(1.3333333,0,0,-1.3333333,-253.30893,704.80492)"
     id="g10"><g
       id="g12"><g
         clip-path="url(#clipPath18)"
         id="g14"><g
           transform="translate(577.6598,109.5299)"
           id="g20"><path
             id="path22"
             style="fill:#a4d9ed;fill-opacity:1;fill-rule:nonzero;stroke:none"
             d="m 0,0 -126.798,126.798 0.168,0.167 -30.161,30.16 -0.167,-0.167 -0.167,0.167 -30.162,-30.16 0.168,-0.167 L -313.916,0 -283.756,-30.16 -156.958,96.636 -30.161,-30.16 Z" /></g><g
           transform="translate(263.7437,485.7501)"
           id="g24"><path
             id="path26"
             style="fill:#a4d9ed;fill-opacity:1;fill-rule:nonzero;stroke:none"
             d="m 0,0 126.797,-126.797 -0.168,-0.167 30.162,-30.16 0.167,0.166 0.167,-0.166 30.161,30.16 -0.168,0.167 L 313.916,0 283.755,30.161 156.958,-96.637 30.16,30.161 Z" /></g><g
           transform="translate(232.5906,140.682)"
           id="g28"><path
             id="path30"
             style="fill:#a4d9ed;fill-opacity:1;fill-rule:nonzero;stroke:none"
             d="m 0,0 126.798,126.798 0.167,-0.168 30.16,30.161 -0.167,0.167 0.167,0.167 -30.16,30.162 -0.167,-0.168 L 0,313.916 -30.16,283.756 96.638,156.958 -30.16,30.161 Z" /></g><g
           transform="translate(608.8118,454.5981)"
           id="g32"><path
             id="path34"
             style="fill:#a4d9ed;fill-opacity:1;fill-rule:nonzero;stroke:none"
             d="m 0,0 -126.798,-126.797 -0.167,0.168 -30.16,-30.162 0.167,-0.167 -0.167,-0.167 30.16,-30.161 0.167,0.168 L 0,-313.916 30.16,-283.755 -96.636,-156.958 30.16,-30.16 Z" /></g></g></g><g
       id="g36"><g
         clip-path="url(#clipPath42)"
         id="g38"><g
           transform="translate(461.5194,488.0297)"
           id="g44"><path
             id="path46"
             style="fill:#7fbed1;fill-opacity:1;fill-rule:nonzero;stroke:none"
             d="m 0,0 c 0,-22.408 -18.166,-40.574 -40.574,-40.574 -22.408,0 -40.574,18.166 -40.574,40.574 0,22.408 18.166,40.574 40.574,40.574 C -18.166,40.574 0,22.408 0,0" /></g><g
           transform="translate(461.5194,107.2503)"
           id="g48"><path
             id="path50"
             style="fill:#7fbed1;fill-opacity:1;fill-rule:nonzero;stroke:none"
             d="m 0,0 c 0,-22.408 -18.166,-40.574 -40.574,-40.574 -22.408,0 -40.574,18.166 -40.574,40.574 0,22.408 18.166,40.574 40.574,40.574 C -18.166,40.574 0,22.408 0,0" /></g><g
           transform="translate(651.9081,297.64)"
           id="g52"><path
             id="path54"
             style="fill:#7fbed1;fill-opacity:1;fill-rule:nonzero;stroke:none"
             d="m 0,0 c 0,-22.408 -18.165,-40.574 -40.573,-40.574 -22.408,0 -40.574,18.166 -40.574,40.574 0,22.408 18.166,40.574 40.574,40.574 C -18.165,40.574 0,22.408 0,0" /></g><g
           transform="translate(271.1297,297.64)"
           id="g56"><path
             id="path58"
             style="fill:#7fbed1;fill-opacity:1;fill-rule:nonzero;stroke:none"
             d="m 0,0 c 0,-22.408 -18.166,-40.574 -40.574,-40.574 -22.408,0 -40.574,18.166 -40.574,40.574 0,22.408 18.166,40.574 40.574,40.574 C -18.166,40.574 0,22.408 0,0" /></g></g></g></g></svg>