<?xml version="1.0" encoding="UTF-8" standalone="no"?>
<svg
   xmlns:dc="http://purl.org/dc/elements/1.1/"
   xmlns:cc="http://creativecommons.org/ns#"
   xmlns:rdf="http://www.w3.org/1999/02/22-rdf-syntax-ns#"
   xmlns:svg="http://www.w3.org/2000/svg"
   xmlns="http://www.w3.org/2000/svg"
   viewBox="0 0 818.62621 364.59665"
   height="364.59665"
   width="818.62622"
   xml:space="preserve"
   id="svg2"
   version="1.1"><metadata
     id="metadata8"><rdf:RDF><cc:Work
         rdf:about=""><dc:format>image/svg+xml</dc:format><dc:type
           rdf:resource="http://purl.org/dc/dcmitype/StillImage" /><dc:title></dc:title></cc:Work></rdf:RDF></metadata><defs
     id="defs6"><clipPath
       id="clipPath18"
       clipPathUnits="userSpaceOnUse"><path
         id="path16"
         d="M 0,595.28 H 841.89 V 0 H 0 Z" /></clipPath><clipPath
       id="clipPath108"
       clipPathUnits="userSpaceOnUse"><path
         id="path106"
         d="m 379.84,385.476 c 0,-29.018 23.524,-52.54 52.541,-52.54 v 0 c 29.017,0 52.54,23.522 52.54,52.54 v 0 c 0,29.017 -23.523,52.541 -52.54,52.541 v 0 c -29.017,0 -52.541,-23.524 -52.541,-52.541" /></clipPath><clipPath
       id="clipPath132"
       clipPathUnits="userSpaceOnUse"><path
         id="path130"
         d="M 0,595.28 H 841.89 V 0 H 0 Z" /></clipPath></defs><g
     transform="matrix(1.3333333,0,0,-1.3333333,-166.16,598.95105)"
     id="g10"><g
       id="g12"><g
         clip-path="url(#clipPath18)"
         id="g14"><g
           transform="translate(244.4413,180.1351)"
           id="g20"><path
             id="path22"
             style="fill:#625e5d;fill-opacity:1;fill-rule:nonzero;stroke:none"
             d="m 0,0 c 1.133,0 2.104,0.971 2.104,2.103 v 25.89 c 0,1.133 -0.971,2.104 -2.104,2.104 h -25.89 c -1.133,0 -2.103,-0.971 -2.103,-2.104 V 2.103 C -27.993,0.971 -27.023,0 -25.89,0 Z m 0,34.466 c 3.614,0 6.472,-2.859 6.472,-6.473 V 2.103 C 6.472,-1.51 3.614,-4.369 0,-4.369 h -25.89 c -3.614,0 -6.472,2.859 -6.472,6.472 v 25.89 c 0,3.614 2.858,6.473 6.472,6.473 z" /></g><g
           transform="translate(261.1068,210.771)"
           id="g24"><path
             id="path26"
             style="fill:#625e5d;fill-opacity:1;fill-rule:nonzero;stroke:none"
             d="M 0,0 V -3.722 H 13.538 V -8.145 H 0 v -26.86 H -4.423 V 0 c 0,3.667 2.858,6.526 6.526,6.526 H 13.538 V 2.103 H 2.103 C 0.97,2.103 0,1.132 0,0" /></g><g
           transform="translate(299.9398,210.2318)"
           id="g28"><path
             id="path30"
             style="fill:#625e5d;fill-opacity:1;fill-rule:nonzero;stroke:none"
             d="m 0,0 c -1.132,0 -2.103,-0.971 -2.103,-2.103 v -25.89 c 0,-1.133 0.971,-2.104 2.103,-2.104 h 32.255 v -4.369 H 0 c -3.613,0 -6.472,2.859 -6.472,6.473 v 25.89 c 0,3.613 2.859,6.472 6.472,6.472 H 32.255 V 0 Z" /></g><g
           transform="translate(344.0595,202.626)"
           id="g32"><path
             id="path34"
             style="fill:#625e5d;fill-opacity:1;fill-rule:nonzero;stroke:none"
             d="m 0,0 c -1.132,0 -2.103,-0.971 -2.103,-2.103 v -18.231 c 0,-1.132 0.971,-2.103 2.103,-2.103 h 18.77 c 1.186,0 2.103,0.971 2.103,2.103 V -2.103 C 20.873,-0.971 19.956,0 18.77,0 Z m 18.77,4.423 c 3.667,0 6.58,-2.912 6.58,-6.526 v -18.231 c 0,-3.613 -2.913,-6.526 -6.58,-6.526 H 0 c -3.615,0 -6.526,2.913 -6.526,6.526 v 18.231 c 0,3.614 2.911,6.526 6.526,6.526 z" /></g><g
           transform="translate(398.6966,180.1889)"
           id="g36"><path
             id="path38"
             style="fill:#625e5d;fill-opacity:1;fill-rule:nonzero;stroke:none"
             d="m 0,0 c 1.132,0 2.103,0.971 2.103,2.103 v 18.231 c 0,1.132 -0.971,2.103 -2.103,2.103 h -18.77 c -1.132,0 -2.103,-0.971 -2.103,-2.103 V 2.103 C -20.873,0.971 -19.902,0 -18.77,0 Z M 6.526,37.108 V -4.423 H -18.77 c -3.668,0 -6.58,2.913 -6.58,6.526 v 18.231 c 0,3.614 2.912,6.526 6.58,6.526 H 2.103 v 10.248 z" /></g><g
           transform="translate(437.1541,193.6188)"
           id="g40"><path
             id="path42"
             style="fill:#625e5d;fill-opacity:1;fill-rule:nonzero;stroke:none"
             d="m 0,0 v 6.904 c 0,1.132 -0.917,2.103 -2.103,2.103 h -18.771 c -1.132,0 -2.103,-0.971 -2.103,-2.103 V 0 Z M 4.477,6.904 V -4.423 h -27.454 v -6.904 c 0,-1.132 0.971,-2.103 2.103,-2.103 H 4.477 v -4.423 h -25.351 c -3.614,0 -6.526,2.913 -6.526,6.526 V 6.904 c 0,3.615 2.912,6.526 6.526,6.526 h 18.771 c 3.667,0 6.58,-2.911 6.58,-6.526" /></g><g
           transform="translate(470.9731,207.0488)"
           id="g44"><path
             id="path46"
             style="fill:#625e5d;fill-opacity:1;fill-rule:nonzero;stroke:none"
             d="m 0,0 v -4.423 h -17.584 c -1.132,0 -2.103,-0.971 -2.103,-2.103 v -24.757 h -4.423 v 24.757 c 0,3.615 2.913,6.526 6.526,6.526 z" /></g><g
           transform="translate(501.823,193.6188)"
           id="g48"><path
             id="path50"
             style="fill:#625e5d;fill-opacity:1;fill-rule:nonzero;stroke:none"
             d="m 0,0 v 6.904 c 0,1.132 -0.917,2.103 -2.103,2.103 h -18.77 c -1.132,0 -2.103,-0.971 -2.103,-2.103 V 0 Z M 4.477,6.904 V -4.423 h -27.453 v -6.904 c 0,-1.132 0.971,-2.103 2.103,-2.103 h 25.35 v -4.423 h -25.35 c -3.615,0 -6.526,2.913 -6.526,6.526 V 6.904 c 0,3.615 2.911,6.526 6.526,6.526 h 18.77 c 3.667,0 6.58,-2.911 6.58,-6.526" /></g><g
           transform="translate(516.2777,202.626)"
           id="g52"><path
             id="path54"
             style="fill:#625e5d;fill-opacity:1;fill-rule:nonzero;stroke:none"
             d="m 0,0 v -20.334 c 0,-1.132 0.971,-2.103 2.103,-2.103 H 13.538 V -26.86 H 2.103 c -3.667,0 -6.526,2.913 -6.526,6.526 V 14.671 H 0 V 4.423 H 13.538 V 0 Z" /></g><g
           transform="translate(558.024,207.0488)"
           id="g56"><path
             id="path58"
             style="fill:#625e5d;fill-opacity:1;fill-rule:nonzero;stroke:none"
             d="m 0,0 v -4.423 h -17.584 c -1.132,0 -2.103,-0.971 -2.103,-2.103 v -24.757 h -4.423 v 24.757 c 0,3.615 2.913,6.526 6.526,6.526 z" /></g><g
           transform="translate(588.8752,193.6188)"
           id="g60"><path
             id="path62"
             style="fill:#625e5d;fill-opacity:1;fill-rule:nonzero;stroke:none"
             d="m 0,0 v 6.904 c 0,1.132 -0.917,2.103 -2.103,2.103 h -18.77 c -1.132,0 -2.103,-0.971 -2.103,-2.103 V 0 Z M 4.477,6.904 V -4.423 h -27.453 v -6.904 c 0,-1.132 0.971,-2.103 2.103,-2.103 h 25.35 v -4.423 h -25.35 c -3.615,0 -6.526,2.913 -6.526,6.526 V 6.904 c 0,3.615 2.911,6.526 6.526,6.526 h 18.77 c 3.667,0 6.58,-2.911 6.58,-6.526" /></g><g
           transform="translate(626.2512,189.196)"
           id="g64"><path
             id="path66"
             style="fill:#625e5d;fill-opacity:1;fill-rule:nonzero;stroke:none"
             d="m 0,0 h -22.976 v -6.904 c 0,-1.132 0.971,-2.103 2.103,-2.103 H 0 Z M 4.477,11.327 V -13.43 h -25.35 c -3.614,0 -6.526,2.913 -6.526,6.526 V 4.423 H 0 v 6.904 c 0,1.132 -0.917,2.103 -2.103,2.103 h -25.296 v 4.423 h 25.296 c 3.667,0 6.58,-2.912 6.58,-6.526" /></g><g
           transform="translate(640.7597,202.626)"
           id="g68"><path
             id="path70"
             style="fill:#625e5d;fill-opacity:1;fill-rule:nonzero;stroke:none"
             d="m 0,0 v -20.334 c 0,-1.132 0.971,-2.103 2.103,-2.103 H 13.538 V -26.86 H 2.103 c -3.667,0 -6.526,2.913 -6.526,6.526 V 14.671 H 0 V 4.423 H 13.538 V 0 Z" /></g><g
           transform="translate(199.372,291.6144)"
           id="g72"><path
             id="path74"
             style="fill:#22353a;fill-opacity:1;fill-rule:nonzero;stroke:none"
             d="m 0,0 h -16.3 v 6.229 h -42.36 v -42.36 h 42.36 v 11.213 H -32.496 V -8.722 H 0 v -28.24 c 0,-8.513 -6.956,-15.365 -15.47,-15.365 h -43.916 c -8.514,0 -15.366,6.852 -15.366,15.365 V 7.06 c 0,8.513 6.852,15.366 15.366,15.366 H -15.47 C -6.956,22.426 0,15.573 0,7.06 Z" /></g><g
           transform="translate(226.3597,319.3347)"
           id="g76"><path
             id="path78"
             style="fill:#22353a;fill-opacity:1;fill-rule:nonzero;stroke:none"
             d="M 0,0 V -64.163 H 12.147 V -80.047 H -0.934 c -8.202,0 -15.055,6.852 -15.055,15.054 V 0 Z" /></g><path
           id="path80"
           style="fill:#22353a;fill-opacity:1;fill-rule:nonzero;stroke:none"
           d="m 262.175,255.172 h 29.278 v 28.448 h -29.278 z m 30.109,44.333 c 8.306,0 15.055,-6.852 15.055,-15.055 v -30.108 c 0,-8.202 -6.749,-15.054 -15.055,-15.054 h -30.939 c -8.202,0 -15.055,6.852 -15.055,15.054 v 30.108 c 0,8.203 6.853,15.055 15.055,15.055 z" /><path
           id="path82"
           style="fill:#22353a;fill-opacity:1;fill-rule:nonzero;stroke:none"
           d="m 333.289,255.172 h 29.277 v 28.448 h -29.277 z m 45.163,29.278 v -30.108 c 0,-8.202 -6.749,-15.054 -15.055,-15.054 h -45.993 v 79.943 h 15.885 v -19.726 h 30.108 c 8.306,0 15.055,-6.852 15.055,-15.055" /><path
           id="path84"
           style="fill:#22353a;fill-opacity:1;fill-rule:nonzero;stroke:none"
           d="m 430.567,263.478 h -29.278 v -8.306 h 29.278 z m 15.885,20.972 v -45.162 h -45.993 c -8.307,0 -15.055,6.852 -15.055,15.054 v 23.048 h 45.163 v 6.23 h -45.163 v 15.885 h 45.994 c 8.306,0 15.054,-6.852 15.054,-15.055" /><g
           transform="translate(470.6393,319.3347)"
           id="g86"><path
             id="path88"
             style="fill:#22353a;fill-opacity:1;fill-rule:nonzero;stroke:none"
             d="M 0,0 V -64.163 H 12.147 V -80.047 H -0.934 c -8.203,0 -15.055,6.852 -15.055,15.054 V 0 Z" /></g><g
           transform="translate(583.9033,300.5427)"
           id="g90"><path
             id="path92"
             style="fill:#22353a;fill-opacity:1;fill-rule:nonzero;stroke:none"
             d="m 0,0 c 0,1.246 -1.038,2.284 -2.284,2.284 h -47.759 c -1.246,0 -2.284,-1.038 -2.284,-2.284 v -47.758 c 0,-1.246 1.038,-2.284 2.284,-2.284 h 47.759 c 1.246,0 2.284,1.038 2.284,2.284 z M -2.284,13.497 C 5.192,13.497 11.213,7.476 11.213,0 v -47.758 c 0,-7.476 -6.021,-13.497 -13.497,-13.497 h -61.255 v 74.752 z" /></g><g
           transform="translate(656.3675,263.7897)"
           id="g94"><path
             id="path96"
             style="fill:#22353a;fill-opacity:1;fill-rule:nonzero;stroke:none"
             d="m 0,0 h -38.83 v -11.005 c 0,-1.246 1.038,-2.284 2.284,-2.284 H 0 Z m 11.213,22.218 v -46.72 h -47.759 c -7.475,0 -13.497,6.021 -13.497,13.497 V 11.213 H 0 v 11.005 c 0,1.246 -1.038,2.284 -2.284,2.284 h -47.759 v 11.213 h 47.759 c 7.475,0 13.497,-6.022 13.497,-13.497" /></g><g
           transform="translate(738.5897,262.1285)"
           id="g98"><path
             id="path100"
             style="fill:#22353a;fill-opacity:1;fill-rule:nonzero;stroke:none"
             d="m 0,0 v -33.223 c 0,-7.475 -6.022,-13.496 -13.497,-13.496 h -37.168 v 11.211 h 37.168 c 1.246,0 2.284,1.039 2.284,2.285 v 10.382 h -36.546 c -7.475,0 -13.497,6.021 -13.497,13.497 v 46.513 h 11.213 V -9.344 c 0,-1.246 1.038,-2.284 2.284,-2.284 h 34.262 c 1.246,0 2.284,1.038 2.284,2.284 V 37.169 H 0 V 0.207 Z" /></g></g></g><g
       id="g102"><g
         clip-path="url(#clipPath108)"
         id="g104"><g
           transform="translate(475.628,333.5649)"
           id="g110"><path
             id="path112"
             style="fill:#a4d9ed;fill-opacity:1;fill-rule:nonzero;stroke:none"
             d="m 0,0 -34.991,34.991 0.046,0.047 -8.323,8.323 -0.046,-0.047 -0.047,0.047 -8.323,-8.323 0.046,-0.047 L -86.629,0 l 8.323,-8.323 34.992,34.991 34.991,-34.991 z" /></g><g
           transform="translate(388.9992,437.3872)"
           id="g114"><path
             id="path116"
             style="fill:#a4d9ed;fill-opacity:1;fill-rule:nonzero;stroke:none"
             d="m 0,0 34.991,-34.991 -0.046,-0.046 8.323,-8.323 0.046,0.046 0.047,-0.046 8.323,8.323 -0.047,0.046 L 86.629,0 78.305,8.323 43.314,-26.668 8.323,8.323 Z" /></g><g
           transform="translate(380.4022,342.1617)"
           id="g118"><path
             id="path120"
             style="fill:#a4d9ed;fill-opacity:1;fill-rule:nonzero;stroke:none"
             d="m 0,0 34.991,34.991 0.047,-0.046 8.323,8.323 -0.047,0.046 0.047,0.047 -8.323,8.323 L 34.991,51.638 0,86.629 -8.323,78.306 26.668,43.314 -8.323,8.323 Z" /></g><g
           transform="translate(484.2248,428.7905)"
           id="g122"><path
             id="path124"
             style="fill:#a4d9ed;fill-opacity:1;fill-rule:nonzero;stroke:none"
             d="m 0,0 -34.991,-34.991 -0.047,0.046 -8.323,-8.323 0.047,-0.046 -0.047,-0.047 8.323,-8.323 0.047,0.047 L 0,-86.629 l 8.323,8.324 -34.991,34.991 34.991,34.991 z" /></g></g></g><g
       id="g126"><g
         clip-path="url(#clipPath132)"
         id="g128"><g
           transform="translate(443.5778,438.0163)"
           id="g134"><path
             id="path136"
             style="fill:#7fbed1;fill-opacity:1;fill-rule:nonzero;stroke:none"
             d="m 0,0 c 0,-6.184 -5.013,-11.197 -11.197,-11.197 -6.184,0 -11.197,5.013 -11.197,11.197 0,6.184 5.013,11.197 11.197,11.197 C -5.013,11.197 0,6.184 0,0" /></g><g
           transform="translate(443.5778,332.9358)"
           id="g138"><path
             id="path140"
             style="fill:#7fbed1;fill-opacity:1;fill-rule:nonzero;stroke:none"
             d="m 0,0 c 0,-6.184 -5.013,-11.197 -11.197,-11.197 -6.184,0 -11.197,5.013 -11.197,11.197 0,6.184 5.013,11.197 11.197,11.197 C -5.013,11.197 0,6.184 0,0" /></g><g
           transform="translate(496.1177,385.4761)"
           id="g142"><path
             id="path144"
             style="fill:#7fbed1;fill-opacity:1;fill-rule:nonzero;stroke:none"
             d="m 0,0 c 0,-6.184 -5.013,-11.197 -11.197,-11.197 -6.183,0 -11.196,5.013 -11.196,11.197 0,6.184 5.013,11.197 11.196,11.197 C -5.013,11.197 0,6.184 0,0" /></g><g
           transform="translate(391.0375,385.4761)"
           id="g146"><path
             id="path148"
             style="fill:#7fbed1;fill-opacity:1;fill-rule:nonzero;stroke:none"
             d="m 0,0 c 0,-6.184 -5.013,-11.197 -11.197,-11.197 -6.184,0 -11.197,5.013 -11.197,11.197 0,6.184 5.013,11.197 11.197,11.197 C -5.013,11.197 0,6.184 0,0" /></g></g></g></g></svg>